# xmcd
#
# Track frame offsets: 
#        150
#        20237
#        35850
#        49638
#        68078
#        89492
#        96807
#        113987
#        120561
#        145161
#        160134
#        165367
#        179577
#        187818
#        205293
#        233161
#        248491
#        261986
#
# Disc length: 3856 seconds
#
# Revision: 0
# Processed by: cddbd v1.5.2PL0 Copyright (c) Steve Scherf et al.
# Submitted via: ExactAudioCopyFreeDBPlugin 1.0
#
DISCID=f90f0e12
DTITLE=无比传真 - 新水浒传
DYEAR=2012
DGENRE=Acid Jazz
TTITLE0=四海
TTITLE1=自從你走後
TTITLE2=醉紅顏
TTITLE3=兄弟無數
TTITLE4=四海盟約
TTITLE5=琴韵
TTITLE6=群山譜
TTITLE7=大悄感主題
TTITLE8=英雄之情懷
TTITLE9=俠情
TTITLE10=鄉土
TTITLE11=水泊梁山
TTITLE12=魯腔
TTITLE13=英雄也有淚
TTITLE14=英雄之忍辱而不屈
TTITLE15=自從你走後
TTITLE16=男人的臂膀
TTITLE17=絕地從生
EXTD=
EXTT0=
EXTT1=
EXTT2=
EXTT3=
EXTT4=
EXTT5=
EXTT6=
EXTT7=
EXTT8=
EXTT9=
EXTT10=
EXTT11=
EXTT12=
EXTT13=
EXTT14=
EXTT15=
EXTT16=
EXTT17=
PLAYORDER=
